<mxfile host="Electron" modified="2024-07-04T03:54:08.304Z" agent="Mozilla/5.0 (Windows NT 10.0; Win64; x64) AppleWebKit/537.36 (KHTML, like Gecko) draw.io/24.1.0 Chrome/120.0.6099.109 Electron/28.1.0 Safari/537.36" etag="AGQlIrme_MfiyplLzy5H" version="24.1.0" type="device">
  <diagram name="ページ1" id="OXOej1m8hmkwoumKmXQp">
    <mxGraphModel dx="824" dy="620" grid="1" gridSize="10" guides="1" tooltips="1" connect="1" arrows="1" fold="1" page="1" pageScale="1" pageWidth="827" pageHeight="1169" math="1" shadow="0">
      <root>
        <mxCell id="0" />
        <mxCell id="1" parent="0" />
        <mxCell id="_adTdZ9gG_cl6HBMPqju-7" value="`g_{m}v_{gs}`" style="text;html=1;align=center;verticalAlign=middle;resizable=0;points=[];autosize=1;strokeColor=none;fillColor=none;fontFamily=Times New Roman;fontSize=18;fontColor=default;labelBackgroundColor=default;" vertex="1" parent="1">
          <mxGeometry x="690" y="410" width="140" height="40" as="geometry" />
        </mxCell>
        <mxCell id="_adTdZ9gG_cl6HBMPqju-2" value="" style="pointerEvents=1;verticalLabelPosition=bottom;shadow=0;dashed=0;align=center;html=1;verticalAlign=top;shape=mxgraph.electrical.signal_sources.source;aspect=fixed;points=[[0.5,0,0],[1,0.5,0],[0.5,1,0],[0,0.5,0]];elSignalType=dc1;direction=south;" vertex="1" parent="1">
          <mxGeometry x="690" y="370" width="60" height="60" as="geometry" />
        </mxCell>
        <mxCell id="_adTdZ9gG_cl6HBMPqju-4" style="edgeStyle=orthogonalEdgeStyle;rounded=0;orthogonalLoop=1;jettySize=auto;html=1;exitX=1;exitY=0.5;exitDx=0;exitDy=0;" edge="1" parent="1" source="_adTdZ9gG_cl6HBMPqju-3" target="_adTdZ9gG_cl6HBMPqju-2">
          <mxGeometry relative="1" as="geometry">
            <mxPoint x="680" y="380" as="targetPoint" />
            <Array as="points">
              <mxPoint x="660" y="340" />
              <mxPoint x="660" y="380" />
            </Array>
          </mxGeometry>
        </mxCell>
        <mxCell id="_adTdZ9gG_cl6HBMPqju-3" value="" style="verticalLabelPosition=bottom;shadow=0;dashed=0;align=center;html=1;verticalAlign=top;strokeWidth=1;shape=ellipse;perimeter=ellipsePerimeter;fontFamily=Helvetica;fontSize=11;fontColor=default;labelBackgroundColor=default;aspect=fixed;" vertex="1" parent="1">
          <mxGeometry x="616" y="336" width="8" height="8" as="geometry" />
        </mxCell>
        <mxCell id="_adTdZ9gG_cl6HBMPqju-5" value="" style="verticalLabelPosition=bottom;shadow=0;dashed=0;align=center;html=1;verticalAlign=top;strokeWidth=1;shape=ellipse;perimeter=ellipsePerimeter;fontFamily=Helvetica;fontSize=11;fontColor=default;labelBackgroundColor=default;aspect=fixed;" vertex="1" parent="1">
          <mxGeometry x="616" y="456" width="8" height="8" as="geometry" />
        </mxCell>
        <mxCell id="_adTdZ9gG_cl6HBMPqju-6" value="" style="pointerEvents=1;verticalLabelPosition=bottom;shadow=0;dashed=0;align=center;html=1;verticalAlign=top;shape=mxgraph.electrical.resistors.resistor_1;fontFamily=Times New Roman;fontSize=14;fontColor=default;labelBackgroundColor=default;fillColor=none;gradientColor=none;direction=south;" vertex="1" parent="1">
          <mxGeometry x="830" y="350" width="20" height="100" as="geometry" />
        </mxCell>
        <mxCell id="_adTdZ9gG_cl6HBMPqju-9" value="" style="pointerEvents=1;verticalLabelPosition=bottom;shadow=0;dashed=0;align=center;html=1;verticalAlign=top;shape=mxgraph.electrical.resistors.resistor_1;fontFamily=Times New Roman;fontSize=14;fontColor=default;labelBackgroundColor=default;fillColor=none;gradientColor=none;direction=south;" vertex="1" parent="1">
          <mxGeometry x="750" y="485" width="20" height="100" as="geometry" />
        </mxCell>
        <mxCell id="_adTdZ9gG_cl6HBMPqju-10" value="" style="verticalLabelPosition=bottom;shadow=0;dashed=0;align=center;html=1;verticalAlign=top;strokeWidth=1;shape=ellipse;perimeter=ellipsePerimeter;fontFamily=Helvetica;fontSize=11;fontColor=default;labelBackgroundColor=default;aspect=fixed;" vertex="1" parent="1">
          <mxGeometry x="876" y="336" width="8" height="8" as="geometry" />
        </mxCell>
        <mxCell id="_adTdZ9gG_cl6HBMPqju-11" value="" style="verticalLabelPosition=bottom;shadow=0;dashed=0;align=center;html=1;verticalAlign=top;strokeWidth=1;shape=ellipse;perimeter=ellipsePerimeter;fontFamily=Helvetica;fontSize=11;fontColor=default;labelBackgroundColor=default;aspect=fixed;" vertex="1" parent="1">
          <mxGeometry x="876" y="456" width="8" height="8" as="geometry" />
        </mxCell>
        <mxCell id="_adTdZ9gG_cl6HBMPqju-12" value="" style="shape=waypoint;sketch=0;fillStyle=solid;size=6;pointerEvents=1;points=[];fillColor=none;resizable=0;rotatable=0;perimeter=centerPerimeter;snapToPoint=1;fontFamily=Helvetica;fontSize=11;fontColor=default;labelBackgroundColor=default;" vertex="1" parent="1">
          <mxGeometry x="750" y="450" width="20" height="20" as="geometry" />
        </mxCell>
        <mxCell id="_adTdZ9gG_cl6HBMPqju-13" value="" style="shape=waypoint;sketch=0;fillStyle=solid;size=6;pointerEvents=1;points=[];fillColor=none;resizable=0;rotatable=0;perimeter=centerPerimeter;snapToPoint=1;fontFamily=Helvetica;fontSize=11;fontColor=default;labelBackgroundColor=default;" vertex="1" parent="1">
          <mxGeometry x="710" y="450" width="20" height="20" as="geometry" />
        </mxCell>
        <mxCell id="_adTdZ9gG_cl6HBMPqju-14" style="edgeStyle=orthogonalEdgeStyle;rounded=0;orthogonalLoop=1;jettySize=auto;html=1;exitX=1;exitY=0.5;exitDx=0;exitDy=0;entryX=-0.022;entryY=0.394;entryDx=0;entryDy=0;entryPerimeter=0;endArrow=none;endFill=0;" edge="1" parent="1" source="_adTdZ9gG_cl6HBMPqju-5" target="_adTdZ9gG_cl6HBMPqju-13">
          <mxGeometry relative="1" as="geometry" />
        </mxCell>
        <mxCell id="_adTdZ9gG_cl6HBMPqju-16" style="edgeStyle=orthogonalEdgeStyle;rounded=0;orthogonalLoop=1;jettySize=auto;html=1;exitX=1;exitY=0.5;exitDx=0;exitDy=0;exitPerimeter=0;entryX=0.548;entryY=0.011;entryDx=0;entryDy=0;entryPerimeter=0;strokeColor=default;align=center;verticalAlign=middle;fontFamily=Helvetica;fontSize=11;fontColor=default;labelBackgroundColor=default;endArrow=none;endFill=0;" edge="1" parent="1" source="_adTdZ9gG_cl6HBMPqju-2" target="_adTdZ9gG_cl6HBMPqju-13">
          <mxGeometry relative="1" as="geometry" />
        </mxCell>
        <mxCell id="_adTdZ9gG_cl6HBMPqju-17" style="edgeStyle=orthogonalEdgeStyle;rounded=0;orthogonalLoop=1;jettySize=auto;html=1;entryX=0.087;entryY=0.456;entryDx=0;entryDy=0;entryPerimeter=0;strokeColor=default;align=center;verticalAlign=middle;fontFamily=Helvetica;fontSize=11;fontColor=default;labelBackgroundColor=default;endArrow=none;endFill=0;" edge="1" parent="1" source="_adTdZ9gG_cl6HBMPqju-13" target="_adTdZ9gG_cl6HBMPqju-12">
          <mxGeometry relative="1" as="geometry" />
        </mxCell>
        <mxCell id="_adTdZ9gG_cl6HBMPqju-18" style="edgeStyle=orthogonalEdgeStyle;rounded=0;orthogonalLoop=1;jettySize=auto;html=1;entryX=0;entryY=0.5;entryDx=0;entryDy=0;entryPerimeter=0;strokeColor=default;align=center;verticalAlign=middle;fontFamily=Helvetica;fontSize=11;fontColor=default;labelBackgroundColor=default;endArrow=none;endFill=0;" edge="1" parent="1" source="_adTdZ9gG_cl6HBMPqju-12" target="_adTdZ9gG_cl6HBMPqju-9">
          <mxGeometry relative="1" as="geometry" />
        </mxCell>
        <mxCell id="_adTdZ9gG_cl6HBMPqju-19" value="" style="shape=waypoint;sketch=0;fillStyle=solid;size=6;pointerEvents=1;points=[];fillColor=none;resizable=0;rotatable=0;perimeter=centerPerimeter;snapToPoint=1;fontFamily=Helvetica;fontSize=11;fontColor=default;labelBackgroundColor=default;" vertex="1" parent="1">
          <mxGeometry x="830" y="450" width="20" height="20" as="geometry" />
        </mxCell>
        <mxCell id="_adTdZ9gG_cl6HBMPqju-20" style="edgeStyle=orthogonalEdgeStyle;rounded=0;orthogonalLoop=1;jettySize=auto;html=1;entryX=0.072;entryY=0.527;entryDx=0;entryDy=0;entryPerimeter=0;strokeColor=default;align=center;verticalAlign=middle;fontFamily=Helvetica;fontSize=11;fontColor=default;labelBackgroundColor=default;endArrow=none;endFill=0;" edge="1" parent="1" source="_adTdZ9gG_cl6HBMPqju-12" target="_adTdZ9gG_cl6HBMPqju-19">
          <mxGeometry relative="1" as="geometry" />
        </mxCell>
        <mxCell id="_adTdZ9gG_cl6HBMPqju-21" style="edgeStyle=orthogonalEdgeStyle;rounded=0;orthogonalLoop=1;jettySize=auto;html=1;entryX=1;entryY=0.5;entryDx=0;entryDy=0;entryPerimeter=0;strokeColor=default;align=center;verticalAlign=middle;fontFamily=Helvetica;fontSize=11;fontColor=default;labelBackgroundColor=default;endArrow=none;endFill=0;" edge="1" parent="1" source="_adTdZ9gG_cl6HBMPqju-19" target="_adTdZ9gG_cl6HBMPqju-6">
          <mxGeometry relative="1" as="geometry" />
        </mxCell>
        <mxCell id="_adTdZ9gG_cl6HBMPqju-22" style="edgeStyle=orthogonalEdgeStyle;rounded=0;orthogonalLoop=1;jettySize=auto;html=1;exitX=0;exitY=0.5;exitDx=0;exitDy=0;entryX=0.97;entryY=0.566;entryDx=0;entryDy=0;entryPerimeter=0;strokeColor=default;align=center;verticalAlign=middle;fontFamily=Helvetica;fontSize=11;fontColor=default;labelBackgroundColor=default;endArrow=none;endFill=0;" edge="1" parent="1" source="_adTdZ9gG_cl6HBMPqju-11" target="_adTdZ9gG_cl6HBMPqju-19">
          <mxGeometry relative="1" as="geometry" />
        </mxCell>
        <mxCell id="_adTdZ9gG_cl6HBMPqju-23" value="" style="shape=waypoint;sketch=0;fillStyle=solid;size=6;pointerEvents=1;points=[];fillColor=none;resizable=0;rotatable=0;perimeter=centerPerimeter;snapToPoint=1;fontFamily=Helvetica;fontSize=11;fontColor=default;labelBackgroundColor=default;" vertex="1" parent="1">
          <mxGeometry x="830" y="330" width="20" height="20" as="geometry" />
        </mxCell>
        <mxCell id="_adTdZ9gG_cl6HBMPqju-24" style="edgeStyle=orthogonalEdgeStyle;rounded=0;orthogonalLoop=1;jettySize=auto;html=1;exitX=0;exitY=0.5;exitDx=0;exitDy=0;exitPerimeter=0;entryX=0.514;entryY=0.912;entryDx=0;entryDy=0;entryPerimeter=0;strokeColor=default;align=center;verticalAlign=middle;fontFamily=Helvetica;fontSize=11;fontColor=default;labelBackgroundColor=default;endArrow=none;endFill=0;" edge="1" parent="1" source="_adTdZ9gG_cl6HBMPqju-6" target="_adTdZ9gG_cl6HBMPqju-23">
          <mxGeometry relative="1" as="geometry" />
        </mxCell>
        <mxCell id="_adTdZ9gG_cl6HBMPqju-25" style="edgeStyle=orthogonalEdgeStyle;rounded=0;orthogonalLoop=1;jettySize=auto;html=1;exitX=0;exitY=0.5;exitDx=0;exitDy=0;entryX=1.011;entryY=0.558;entryDx=0;entryDy=0;entryPerimeter=0;strokeColor=default;align=center;verticalAlign=middle;fontFamily=Helvetica;fontSize=11;fontColor=default;labelBackgroundColor=default;endArrow=none;endFill=0;" edge="1" parent="1" source="_adTdZ9gG_cl6HBMPqju-10" target="_adTdZ9gG_cl6HBMPqju-23">
          <mxGeometry relative="1" as="geometry" />
        </mxCell>
        <mxCell id="_adTdZ9gG_cl6HBMPqju-26" style="edgeStyle=orthogonalEdgeStyle;rounded=0;orthogonalLoop=1;jettySize=auto;html=1;exitX=0;exitY=0.5;exitDx=0;exitDy=0;exitPerimeter=0;entryX=0.035;entryY=0.455;entryDx=0;entryDy=0;entryPerimeter=0;strokeColor=default;align=center;verticalAlign=middle;fontFamily=Helvetica;fontSize=11;fontColor=default;labelBackgroundColor=default;endArrow=none;endFill=0;" edge="1" parent="1" source="_adTdZ9gG_cl6HBMPqju-2" target="_adTdZ9gG_cl6HBMPqju-23">
          <mxGeometry relative="1" as="geometry">
            <Array as="points">
              <mxPoint x="720" y="340" />
            </Array>
          </mxGeometry>
        </mxCell>
        <mxCell id="_adTdZ9gG_cl6HBMPqju-28" value="" style="pointerEvents=1;verticalLabelPosition=bottom;shadow=0;dashed=0;align=center;html=1;verticalAlign=top;shape=mxgraph.electrical.signal_sources.signal_ground;fontFamily=Helvetica;fontSize=11;fontColor=default;labelBackgroundColor=default;" vertex="1" parent="1">
          <mxGeometry x="539.9999999999999" y="381" width="45" height="30" as="geometry" />
        </mxCell>
        <mxCell id="_adTdZ9gG_cl6HBMPqju-30" value="" style="pointerEvents=1;verticalLabelPosition=bottom;shadow=0;dashed=0;align=center;html=1;verticalAlign=top;shape=mxgraph.electrical.signal_sources.signal_ground;fontFamily=Helvetica;fontSize=11;fontColor=default;labelBackgroundColor=default;" vertex="1" parent="1">
          <mxGeometry x="737.4999999999999" y="580" width="45" height="30" as="geometry" />
        </mxCell>
        <mxCell id="_adTdZ9gG_cl6HBMPqju-33" style="edgeStyle=orthogonalEdgeStyle;rounded=0;orthogonalLoop=1;jettySize=auto;html=1;exitX=0.5;exitY=0;exitDx=0;exitDy=0;exitPerimeter=0;entryX=1;entryY=0.5;entryDx=0;entryDy=0;strokeColor=default;align=center;verticalAlign=middle;fontFamily=Helvetica;fontSize=11;fontColor=default;labelBackgroundColor=default;endArrow=none;endFill=0;" edge="1" parent="1" source="_adTdZ9gG_cl6HBMPqju-31" target="_adTdZ9gG_cl6HBMPqju-11">
          <mxGeometry relative="1" as="geometry" />
        </mxCell>
        <mxCell id="_adTdZ9gG_cl6HBMPqju-31" value="" style="pointerEvents=1;verticalLabelPosition=bottom;shadow=0;dashed=0;align=center;html=1;verticalAlign=top;shape=mxgraph.electrical.signal_sources.source;aspect=fixed;points=[[0.5,0,0],[1,0.5,0],[0.5,1,0],[0,0.5,0]];elSignalType=ac;fontFamily=Helvetica;fontSize=11;fontColor=default;labelBackgroundColor=default;" vertex="1" parent="1">
          <mxGeometry x="890" y="490" width="60" height="60" as="geometry" />
        </mxCell>
        <mxCell id="_adTdZ9gG_cl6HBMPqju-32" value="" style="pointerEvents=1;verticalLabelPosition=bottom;shadow=0;dashed=0;align=center;html=1;verticalAlign=top;shape=mxgraph.electrical.signal_sources.signal_ground;fontFamily=Helvetica;fontSize=11;fontColor=default;labelBackgroundColor=default;" vertex="1" parent="1">
          <mxGeometry x="897.4999999999999" y="570" width="45" height="30" as="geometry" />
        </mxCell>
        <mxCell id="_adTdZ9gG_cl6HBMPqju-34" style="edgeStyle=orthogonalEdgeStyle;rounded=0;orthogonalLoop=1;jettySize=auto;html=1;exitX=0.5;exitY=1;exitDx=0;exitDy=0;exitPerimeter=0;entryX=0.5;entryY=0;entryDx=0;entryDy=0;entryPerimeter=0;strokeColor=default;align=center;verticalAlign=middle;fontFamily=Helvetica;fontSize=11;fontColor=default;labelBackgroundColor=default;endArrow=none;endFill=0;" edge="1" parent="1" source="_adTdZ9gG_cl6HBMPqju-31" target="_adTdZ9gG_cl6HBMPqju-32">
          <mxGeometry relative="1" as="geometry" />
        </mxCell>
        <mxCell id="_adTdZ9gG_cl6HBMPqju-35" value="" style="endArrow=none;html=1;rounded=0;strokeColor=default;align=center;verticalAlign=middle;fontFamily=Helvetica;fontSize=11;fontColor=default;labelBackgroundColor=default;" edge="1" parent="1">
          <mxGeometry width="50" height="50" relative="1" as="geometry">
            <mxPoint x="620" y="450" as="sourcePoint" />
            <mxPoint x="620" y="420" as="targetPoint" />
          </mxGeometry>
        </mxCell>
        <mxCell id="_adTdZ9gG_cl6HBMPqju-36" style="edgeStyle=orthogonalEdgeStyle;rounded=0;orthogonalLoop=1;jettySize=auto;html=1;exitX=0;exitY=0.5;exitDx=0;exitDy=0;entryX=0.5;entryY=0;entryDx=0;entryDy=0;entryPerimeter=0;strokeColor=default;align=center;verticalAlign=middle;fontFamily=Helvetica;fontSize=11;fontColor=default;labelBackgroundColor=default;endArrow=none;endFill=0;" edge="1" parent="1" source="_adTdZ9gG_cl6HBMPqju-3" target="_adTdZ9gG_cl6HBMPqju-28">
          <mxGeometry relative="1" as="geometry" />
        </mxCell>
        <mxCell id="_adTdZ9gG_cl6HBMPqju-37" value="`v_{gs}`" style="text;html=1;align=center;verticalAlign=middle;resizable=0;points=[];autosize=1;strokeColor=none;fillColor=none;fontFamily=Helvetica;fontSize=18;fontColor=default;labelBackgroundColor=default;" vertex="1" parent="1">
          <mxGeometry x="575" y="380" width="90" height="40" as="geometry" />
        </mxCell>
        <mxCell id="_adTdZ9gG_cl6HBMPqju-38" value="" style="endArrow=classic;html=1;rounded=0;strokeColor=default;align=center;verticalAlign=middle;fontFamily=Helvetica;fontSize=11;fontColor=default;labelBackgroundColor=default;" edge="1" parent="1">
          <mxGeometry width="50" height="50" relative="1" as="geometry">
            <mxPoint x="620" y="390" as="sourcePoint" />
            <mxPoint x="620" y="350" as="targetPoint" />
          </mxGeometry>
        </mxCell>
        <mxCell id="_adTdZ9gG_cl6HBMPqju-39" value="" style="endArrow=classic;html=1;rounded=0;strokeColor=default;align=center;verticalAlign=middle;fontFamily=Helvetica;fontSize=11;fontColor=default;labelBackgroundColor=default;" edge="1" parent="1">
          <mxGeometry width="50" height="50" relative="1" as="geometry">
            <mxPoint x="920" y="449.62" as="sourcePoint" />
            <mxPoint x="890" y="449.62" as="targetPoint" />
          </mxGeometry>
        </mxCell>
        <mxCell id="_adTdZ9gG_cl6HBMPqju-40" value="`i_{out}^{&#39;}`" style="text;html=1;align=center;verticalAlign=middle;resizable=0;points=[];autosize=1;strokeColor=none;fillColor=none;fontFamily=Helvetica;fontSize=18;fontColor=default;labelBackgroundColor=default;" vertex="1" parent="1">
          <mxGeometry x="847.5" y="415" width="110" height="40" as="geometry" />
        </mxCell>
        <mxCell id="_adTdZ9gG_cl6HBMPqju-41" value="`v_{out}^{&#39;}`" style="text;html=1;align=center;verticalAlign=middle;resizable=0;points=[];autosize=1;strokeColor=none;fillColor=none;fontFamily=Helvetica;fontSize=18;fontColor=default;labelBackgroundColor=default;" vertex="1" parent="1">
          <mxGeometry x="810" y="500" width="120" height="40" as="geometry" />
        </mxCell>
        <mxCell id="_adTdZ9gG_cl6HBMPqju-43" value="`g_{ds}`" style="text;html=1;align=center;verticalAlign=middle;resizable=0;points=[];autosize=1;strokeColor=none;fillColor=none;fontFamily=Helvetica;fontSize=18;fontColor=default;labelBackgroundColor=default;" vertex="1" parent="1">
          <mxGeometry x="827" y="376" width="90" height="40" as="geometry" />
        </mxCell>
        <mxCell id="_adTdZ9gG_cl6HBMPqju-44" value="`g_{r}`" style="text;html=1;align=center;verticalAlign=middle;resizable=0;points=[];autosize=1;strokeColor=none;fillColor=none;fontFamily=Helvetica;fontSize=18;fontColor=default;labelBackgroundColor=default;" vertex="1" parent="1">
          <mxGeometry x="700" y="515" width="70" height="40" as="geometry" />
        </mxCell>
      </root>
    </mxGraphModel>
  </diagram>
</mxfile>
